<?xml version="1.0" encoding="UTF-8" standalone="no"?>
<svg
   xmlns:dc="http://purl.org/dc/elements/1.1/"
   xmlns:cc="http://creativecommons.org/ns#"
   xmlns:rdf="http://www.w3.org/1999/02/22-rdf-syntax-ns#"
   xmlns:svg="http://www.w3.org/2000/svg"
   xmlns="http://www.w3.org/2000/svg"
   xmlns:xlink="http://www.w3.org/1999/xlink"
   xmlns:sodipodi="http://sodipodi.sourceforge.net/DTD/sodipodi-0.dtd"
   xmlns:inkscape="http://www.inkscape.org/namespaces/inkscape"
   width="64"
   height="64"
   version="1.1"
   viewBox="0 0 16.933 16.933"
   id="svg34"
   sodipodi:docname="plank-setting.svg"
   inkscape:version="0.92.5 (2060ec1f9f, 2020-04-08)">
  <metadata
     id="metadata38">
    <rdf:RDF>
      <cc:Work
         rdf:about="">
        <dc:format>image/svg+xml</dc:format>
        <dc:type
           rdf:resource="http://purl.org/dc/dcmitype/StillImage" />
        <dc:title></dc:title>
      </cc:Work>
    </rdf:RDF>
  </metadata>
  <sodipodi:namedview
     pagecolor="#ffffff"
     bordercolor="#666666"
     borderopacity="1"
     objecttolerance="10"
     gridtolerance="10"
     guidetolerance="10"
     inkscape:pageopacity="0"
     inkscape:pageshadow="2"
     inkscape:window-width="1086"
     inkscape:window-height="771"
     id="namedview36"
     showgrid="false"
     inkscape:zoom="3.6875"
     inkscape:cx="23.864407"
     inkscape:cy="32"
     inkscape:window-x="0"
     inkscape:window-y="0"
     inkscape:window-maximized="0"
     inkscape:current-layer="svg34" />
  <defs
     id="defs10">
    <linearGradient
       id="b"
       x1="13.229"
       x2="2.117"
       y1="297"
       y2="280.07"
       gradientTransform="matrix(1.0714 0 0 1.3043 -.60393 -87.816)"
       gradientUnits="userSpaceOnUse">
      <stop
         stop-color="#66bcff"
         offset="0"
         id="stop2" />
      <stop
         stop-color="#b29aff"
         offset="1"
         id="stop4" />
    </linearGradient>
    <filter
       id="a"
       x="-.036"
       y="-.036"
       width="1.072"
       height="1.072"
       color-interpolation-filters="sRGB">
      <feGaussianBlur
         stdDeviation="0.23812032"
         id="feGaussianBlur7" />
    </filter>
    <linearGradient
       gradientTransform="matrix(0.19471593,0,0,0.18338718,2.2714817,0.6250226)"
       id="d"
       x1="32.130001"
       x2="31.886"
       y1="12.566"
       y2="53.349998"
       gradientUnits="userSpaceOnUse"
       xlink:href="#b-6" />
    <linearGradient
       id="b-6"
       x1="499.95001"
       x2="499.95001"
       y1="2.0078001"
       y2="1026"
       gradientTransform="matrix(0.99609,0,0,0.99609,2,2)"
       gradientUnits="userSpaceOnUse">
      <stop
         stop-color="#fff"
         offset="0"
         id="stop2-7" />
      <stop
         stop-color="#d7d7d7"
         offset="1"
         id="stop4-5" />
    </linearGradient>
  </defs>
  <g
     transform="translate(0 -280.07)"
     id="g32">
    <rect
       x=".52916"
       y="280.6"
       width="15.875"
       height="15.875"
       ry="7.9373"
       filter="url(#a)"
       opacity=".25"
       style="paint-order:stroke markers fill"
       id="rect12" />
    <rect
       x=".52916"
       y="280.6"
       width="15.875"
       height="15.875"
       ry="7.9373"
       fill="url(#b)"
       style="paint-order:stroke markers fill"
       id="rect14" />
    <rect
       x="3.44"
       y="292.24"
       width="10.054"
       height="1.323"
       ry=".265"
       fill="#fff"
       opacity=".35"
       style="paint-order:markers stroke fill"
       id="rect16" />
    <g
       fill="#ccdfff"
       id="g26">
      <rect
         x="4.498"
         y="291.44"
         width="1.323"
         height="1.323"
         ry=".132"
         style="paint-order:stroke markers fill"
         id="rect18" />
      <rect
         x="6.703"
         y="291.44"
         width="1.323"
         height="1.323"
         ry=".132"
         style="paint-order:stroke markers fill"
         id="rect20" />
      <rect
         x="8.908"
         y="291.44"
         width="1.323"
         height="1.323"
         ry=".132"
         style="paint-order:stroke markers fill"
         id="rect22" />
      <rect
         x="11.113"
         y="291.44"
         width="1.323"
         height="1.323"
         ry=".132"
         style="paint-order:stroke markers fill"
         id="rect24" />
    </g>
    <rect
       x="7.12"
       y="280.86"
       width="2.646"
       height=".529"
       ry=".265"
       opacity=".35"
       style="paint-order:stroke markers fill"
       id="rect28" />
    <path
       transform="matrix(.26458 0 0 .26458 0 280.07)"
       d="m32 2c-5.474 0-10.591 1.4594-15 4h30c-4.4088-2.5406-9.526-4-15-4z"
       opacity=".35"
       stroke-width="3.7796"
       style="paint-order:stroke markers fill"
       id="path30" />
  </g>
  <path
     inkscape:connector-curvature="0"
     style="clip-rule:evenodd;fill:url(#d);fill-rule:evenodd;stroke-width:0.02964131"
     d="m 12.178823,6.1064653 c -0.0117,-0.097958 -0.132973,-0.1715699 -0.237845,-0.1715699 -0.33904,0 -0.639915,-0.1874946 -0.766091,-0.4774484 -0.1289,-0.2969954 -0.04578,-0.6433402 0.206905,-0.8616265 0.07954,-0.068474 0.0892,-0.1831084 0.0225,-0.2627387 -0.173527,-0.2075392 -0.370759,-0.3949978 -0.586115,-0.55746 -0.08433,-0.063733 -0.208054,-0.054868 -0.28117,0.02139 C 10.316489,4.0270161 9.92036,4.112511 9.6142661,3.9922272 9.2957306,3.866031 9.0948615,3.5620378 9.1145275,3.2357369 9.1210038,3.1332416 9.0414625,3.0441154 8.9329608,3.0322137 8.6566003,3.002111 8.3778259,3.0011753 8.1006477,3.0301343 7.9933862,3.0412868 7.9138485,3.1282996 7.9174546,3.2294946 7.9295168,3.5525856 7.7262243,3.8512687 7.4108621,3.9729277 7.1084299,4.0892703 6.7151036,4.0045067 6.4950159,3.7765382 6.4222748,3.7014485 6.300565,3.6922188 6.2158323,3.7544204 5.9940902,3.9182639 5.7924226,4.1058819 5.6173147,4.3116973 5.5490105,4.391713 5.5590592,4.5076834 5.6393953,4.5765266 5.8968876,4.7961512 5.9800314,5.1455036 5.8462617,5.4459105 5.7185452,5.7323245 5.4027571,5.9169038 5.0412475,5.9169038 4.9239371,5.9133688 4.8403786,5.9875075 4.8275469,6.0879546 c -0.032541,0.2617663 -0.032926,0.528503 -0.0016,0.7923972 0.011617,0.098372 0.1365816,0.171337 0.2425966,0.171337 0.322177,-0.00775 0.6314835,0.180101 0.7612423,0.4774852 0.1293415,0.2969953 0.046196,0.6431385 -0.2068664,0.8616077 -0.079152,0.068474 -0.089201,0.1829268 -0.022492,0.2625558 0.1719049,0.2062188 0.3691619,0.3938603 0.5852769,0.5576803 0.084768,0.064329 0.2081124,0.055256 0.2815792,-0.021002 0.2213527,-0.2305907 0.617444,-0.3159206 0.9223108,-0.1953991 0.3193341,0.125806 0.5202032,0.429768 0.5005364,0.7562703 -0.0064,0.102549 0.073507,0.191823 0.1815673,0.203542 0.1413713,0.01553 0.2836039,0.02328 0.4262138,0.02328 0.1353703,0 0.2707716,-0.007 0.4061382,-0.02118 C 9.011338,9.945379 9.0908212,9.858369 9.0872129,9.756985 9.0748002,9.4340769 9.2784468,9.1353945 9.5933997,9.0139553 9.897857,8.8968349 10.289548,8.9825564 10.509655,9.21029 c 0.07315,0.074934 0.194011,0.083984 0.279223,0.021986 0.221314,-0.1634547 0.422572,-0.3509112 0.598518,-0.557313 0.06827,-0.079834 0.05864,-0.1959861 -0.0221,-0.2648112 C 11.107803,8.1905273 11.024231,7.8411195 11.15802,7.5409149 11.283781,7.2583152 11.587836,7.0685645 11.914881,7.0685645 l 0.04575,0.00111 c 0.106077,0.00812 0.203672,-0.068842 0.216523,-0.1708179 0.0326,-0.2620054 0.03299,-0.5285037 0.0016,-0.7923979 z M 8.5082331,7.6629641 c -0.6805127,0 -1.2340513,-0.5213146 -1.2340513,-1.1622351 0,-0.640883 0.5535386,-1.1622343 1.2340513,-1.1622343 0.6804928,0 1.2340319,0.5213513 1.2340319,1.1622343 0,0.6409018 -0.5535392,1.1622351 -1.2340319,1.1622351 z"
     id="path27" />
</svg>
